<svg width="64" height="64" viewBox="0 0 64 64" fill="none" xmlns="http://www.w3.org/2000/svg">
<path d="M32 20C32 15.5817 35.5817 12 40 12H44" stroke="#3F704D" stroke-width="2" stroke-linecap="round" stroke-linejoin="round"/>
<path d="M40 52C46.6274 52 52 46.6274 52 40C52 33.3726 46.6274 28 40 28C33.3726 28 28 33.3726 28 40C28 46.6274 33.3726 52 40 52Z" stroke="#E2725B" stroke-width="2" stroke-linecap="round" stroke-linejoin="round"/>
<path d="M20 52C26.6274 52 32 46.6274 32 40C32 33.3726 26.6274 28 20 28C13.3726 28 8 33.3726 8 40C8 46.6274 13.3726 52 20 52Z" stroke="#3F704D" stroke-width="2" stroke-linecap="round" stroke-linejoin="round"/>
<path d="M20 28V22C20 16.4772 24.4772 12 30 12H32" stroke="#3F704D" stroke-width="2" stroke-linecap="round" stroke-linejoin="round"/>
</svg>
