<svg xmlns="http://www.w3.org/2000/svg" width="24" height="24" viewBox="0 0 24 24" fill="none" stroke="currentColor" stroke-width="2" stroke-linecap="round" stroke-linejoin="round" class="lucide lucide-map"><path d="M14.106 5.553a2 2 0 0 0-1.268-1.268L5.6 2.165A2 2 0 0 0 3.435 4.332l2.122 7.239a2 2 0 0 0 1.268 1.268l7.239 2.122a2 2 0 0 0 2.167-2.167z"/><path d="M18.447 9.894a2 2 0 0 0-1.268-1.268L9.94 6.504A2 2 0 0 0 7.773 8.67l2.122 7.239a2 2 0 0 0 1.268 1.268l7.239 2.122a2 2 0 0 0 2.167-2.167z"/><path d="M12.45 18.45 18.45 12.45"/></svg>
