<svg width="64" height="64" viewBox="0 0 64 64" fill="none" xmlns="http://www.w3.org/2000/svg">
<path d="M16 14C16 11.7909 17.7909 10 20 10H44C46.2091 10 48 11.7909 48 14V54H16V14Z" stroke="#3F704D" stroke-width="4" stroke-linecap="round" stroke-linejoin="round"/>
<path d="M16 18H48" stroke="#3F704D" stroke-width="4" stroke-linecap="round" stroke-linejoin="round"/>
<path d="M16 48H48" stroke="#3F704D" stroke-width="4" stroke-linecap="round" stroke-linejoin="round"/>
<path d="M28 6C28 4.89543 28.8954 4 30 4H34C35.1046 4 36 4.89543 36 6V10H28V6Z" stroke="#3F704D" stroke-width="4" stroke-linecap="round" stroke-linejoin="round"/>
<path d="M48 54C48 56.2091 46.2091 58 44 58H20C17.7909 58 16 56.2091 16 54V54" stroke="#3F704D" stroke-width="4" stroke-linecap="round" stroke-linejoin="round"/>
</svg>
